<svg xmlns="http://www.w3.org/2000/svg" version="1.1" xmlns:xlink="http://www.w3.org/1999/xlink" xmlns:svgjs="http://svgjs.dev/svgjs" width="100%" height="100%" viewBox="0 0 1000 600"><rect width="1000" height="600" x="0" y="0" fill="lightblue"/><g><rect width="333.3333333333333" height="333.3333333333333" rx="13.333333333333334" ry="13.333333333333334" y="197.3541672814513" fill="black" transform="matrix(0.7137475989142765,0,0,0.7137475989142765,0,40.181004367925965)" x="175.13197326660156"/><path d="M357.0756674066301 439.0208417916887Q348.95508070162725 439.0208417916887 344.2837064097861 436.2506082000155L344.2837064097861 436.2506082000155Q337.6840322649175 432.4211676468202 337.6840322649175 424.51785416469363L337.6840322649175 424.51785416469363Q337.6840322649175 419.24897850994256 340.18267432799536 413.1381691165458L340.18267432799536 413.1381691165458Q343.79484165831434 417.04908712831974 346.86382593144253 418.62431799417317Q349.9056510517112 420.19954886002654 353.35486346487295 420.19954886002654L353.35486346487295 420.19954886002654Q363.07784018858877 420.19954886002654 368.34671584333984 408.1680441432497L368.34671584333984 408.1680441432497Q370.54660722496266 403.30655578139175 371.57865503362524 397.14142808227587Q372.6378619951474 391.00345953601953 372.6378619951474 385.08276421263946L372.6378619951474 385.08276421263946Q372.6378619951474 373.81171577592977 368.7269439833734 367.5107923125162L368.7269439833734 367.5107923125162Q364.05556969153224 360.15066188758044 354.1153197449401 360.15066188758044L354.1153197449401 360.15066188758044Q348.8736032430486 360.15066188758044 345.1256401484319 360.829640709069L345.1256401484319 360.829640709069L329.1017399613024 435.68026598996516L300.93769844595795 435.68026598996516L327.47219078972995 311.2641867404059L356.3966885851416 307.4619053400701L347.2440540714761 350.8079133038982L348.38473849157685 350.8079133038982Q354.00668313350195 350.8079133038982 359.1669221768148 348.03767971222493Q364.32716122012766 345.2674461205517 368.2380792319016 340.48743521727243L368.2380792319016 340.48743521727243Q372.067519785097 335.8160609254313 374.2945703195794 330.16695713064667Q376.54878000692133 324.5450124887216 376.54878000692133 319.0860227639538L376.54878000692133 319.0860227639538Q376.54878000692133 314.9035132235844 375.08218575250606 311.1283909761081Q373.5884323452313 307.35326872863186 370.6280846835413 304.50155767838004L370.6280846835413 304.50155767838004Q363.8654556215155 297.98336099209007 350.7747439432165 297.98336099209007L350.7747439432165 297.98336099209007Q338.74323922643964 297.98336099209007 327.9610555412017 303.143600035403L327.9610555412017 303.143600035403Q315.92955082442484 308.9828179002044 309.519990749573 318.895908693937L309.519990749573 318.895908693937Q301.8882687960419 330.46570781210164 301.8882687960419 345.53903764914713L301.8882687960419 345.53903764914713Q301.8882687960419 351.83996111256073 303.3277038975976 355.2891735257225L303.3277038975976 355.2891735257225Q303.70793203763117 356.53849455726146 304.27827424768157 357.4890649073454L304.27827424768157 357.4890649073454Q304.65850238771515 358.1408845759744 304.65850238771515 358.81986339746294L304.65850238771515 358.81986339746294Q294.2565468425108 358.81986339746294 288.9876711877597 354.66451300995305Q283.74595468586824 350.5091626224432 283.74595468586824 340.867663357306L283.74595468586824 340.867663357306Q283.74595468586824 327.50536015041166 293.9577961610558 315.3652188221966L293.9577961610558 315.3652188221966Q298.73780706433513 309.63463756883334 305.3646403620632 304.8274675126945Q312.0186328126509 299.9931383036961 319.9219462947774 296.46244843195575L319.9219462947774 296.46244843195575Q336.6519844562549 289.0208405484414 354.68566195499045 289.0208405484414L354.68566195499045 289.0208405484414Q374.83775337677025 289.0208405484414 386.2989158834967 298.580862355L386.2989158834967 298.580862355Q391.24188170393325 302.7633718953694 393.79484207273015 308.3581573844349Q396.3206432886675 313.9529428735005 396.3206432886675 320.14522972547593L396.3206432886675 320.14522972547593Q396.3206432886675 329.4065008505795 391.3505183153714 337.33697348556564L391.3505183153714 337.33697348556564Q385.81005113202497 346.10937985919753 376.7388940769381 351.1881414439318L376.7388940769381 351.1881414439318Q388.4988072651196 353.27939621411645 394.6096166585164 362.5406673392201L394.6096166585164 362.5406673392201Q399.8513331604079 370.66125404422297 399.8513331604079 382.6927587609998L399.8513331604079 382.6927587609998Q399.8513331604079 387.6628837342959 398.9007628103239 393.66505651625454Q397.95019246024 399.69438845107277 396.0218926072125 405.6150837744528L396.0218926072125 405.6150837744528Q391.3505183153714 420.3081854714647 382.7682260117563 428.6188862464844L382.7682260117563 428.6188862464844Q372.067519785097 439.0208417916887 357.0756674066301 439.0208417916887L357.0756674066301 439.0208417916887Z " fill="Blue" transform="matrix(0.7137475989142765,0,0,0.7137475989142765,0,40.181004367925965)"/><path d="M648.0486470961819 404.0833405484414Q641.8194804295151 404.0833405484414 638.2361470961819 401.9583405484414L638.2361470961819 401.9583405484414Q633.1736470961819 399.0208405484414 633.1736470961819 392.9583405484414L633.1736470961819 392.9583405484414Q633.1736470961819 388.9166738817747 635.0903137628485 384.2291738817747L635.0903137628485 384.2291738817747Q637.8611470961819 387.2291738817747 640.2153137628485 388.4375072151081Q642.5486470961819 389.6458405484414 645.1944804295151 389.6458405484414L645.1944804295151 389.6458405484414Q652.6528137628485 389.6458405484414 656.6944804295151 380.4166738817747L656.6944804295151 380.4166738817747Q658.3819804295151 376.6875072151081 659.1736470961819 371.9583405484414Q659.9861470961819 367.2500072151081 659.9861470961819 362.7083405484414L659.9861470961819 362.7083405484414Q659.9861470961819 354.0625072151081 656.9861470961819 349.2291738817747L656.9861470961819 349.2291738817747Q653.4028137628485 343.5833405484414 645.7778137628485 343.5833405484414L645.7778137628485 343.5833405484414Q641.7569804295151 343.5833405484414 638.8819804295151 344.1041738817747L638.8819804295151 344.1041738817747L626.5903137628485 401.5208405484414L604.9861470961819 401.5208405484414L625.3403137628485 306.0833405484414L647.5278137628485 303.1666738817747L640.5069804295151 336.4166738817747L641.3819804295151 336.4166738817747Q645.6944804295151 336.4166738817747 649.6528137628485 334.2916738817747Q653.6111470961819 332.1666738817747 656.6111470961819 328.5000072151081L656.6111470961819 328.5000072151081Q659.5486470961819 324.9166738817747 661.2569804295151 320.5833405484414Q662.9861470961819 316.2708405484414 662.9861470961819 312.0833405484414L662.9861470961819 312.0833405484414Q662.9861470961819 308.8750072151081 661.8611470961819 305.9791738817747Q660.7153137628485 303.0833405484414 658.4444804295151 300.8958405484414L658.4444804295151 300.8958405484414Q653.2569804295151 295.8958405484414 643.2153137628485 295.8958405484414L643.2153137628485 295.8958405484414Q633.9861470961819 295.8958405484414 625.7153137628485 299.8541738817747L625.7153137628485 299.8541738817747Q616.4861470961819 304.3333405484414 611.5694804295151 311.93750721510804L611.5694804295151 311.93750721510804Q605.7153137628485 320.8125072151081 605.7153137628485 332.3750072151081L605.7153137628485 332.3750072151081Q605.7153137628485 337.2083405484414 606.8194804295151 339.8541738817747L606.8194804295151 339.8541738817747Q607.1111470961819 340.8125072151081 607.5486470961819 341.5416738817747L607.5486470961819 341.5416738817747Q607.8403137628485 342.0416738817747 607.8403137628485 342.5625072151081L607.8403137628485 342.5625072151081Q599.8611470961819 342.5625072151081 595.8194804295151 339.3750072151081Q591.7986470961819 336.1875072151081 591.7986470961819 328.7916738817748L591.7986470961819 328.7916738817748Q591.7986470961819 318.5416738817748 599.6319804295151 309.2291738817747L599.6319804295151 309.2291738817747Q603.2986470961819 304.8333405484414 608.3819804295151 301.1458405484414Q613.4861470961819 297.4375072151081 619.5486470961819 294.7291738817747L619.5486470961819 294.7291738817747Q632.3819804295151 289.0208405484414 646.2153137628485 289.0208405484414L646.2153137628485 289.0208405484414Q661.6736470961819 289.0208405484414 670.4653137628485 296.3541738817747L670.4653137628485 296.3541738817747Q674.2569804295151 299.5625072151081 676.2153137628485 303.8541738817747Q678.1528137628485 308.1458405484414 678.1528137628485 312.8958405484414L678.1528137628485 312.8958405484414Q678.1528137628485 320.00000721510804 674.3403137628485 326.0833405484414L674.3403137628485 326.0833405484414Q670.0903137628485 332.8125072151081 663.1319804295151 336.7083405484414L663.1319804295151 336.7083405484414Q672.1528137628486 338.3125072151081 676.8403137628486 345.4166738817747L676.8403137628486 345.4166738817747Q680.8611470961819 351.6458405484414 680.8611470961819 360.87500721510804L680.8611470961819 360.87500721510804Q680.8611470961819 364.6875072151081 680.1319804295151 369.2916738817747Q679.4028137628485 373.9166738817747 677.9236470961819 378.4583405484414L677.9236470961819 378.4583405484414Q674.3403137628485 389.7291738817748 667.7569804295151 396.1041738817747L667.7569804295151 396.1041738817747Q659.5486470961819 404.0833405484414 648.0486470961819 404.0833405484414L648.0486470961819 404.0833405484414ZM711.1736470961819 318.3958405484414Q708.7569804295151 318.3958405484414 706.5694804295151 317.4791738817747Q704.3611470961819 316.56250721510804 702.7569804295151 314.9583405484414L702.7569804295151 314.9583405484414Q701.1528137628486 313.4166738817748 700.2361470961819 311.2083405484414Q699.3194804295151 309.0208405484414 699.3194804295151 306.6041738817747L699.3194804295151 306.6041738817747Q699.3194804295151 304.1875072151081 700.2361470961819 301.9791738817747Q701.1528137628486 299.7916738817747 702.7569804295151 298.1041738817747L702.7569804295151 298.1041738817747Q704.3611470961819 296.4166738817747 706.5694804295151 295.5000072151081Q708.7569804295151 294.5833405484414 711.1736470961819 294.5833405484414L711.1736470961819 294.5833405484414Q713.5903137628486 294.5833405484414 715.7986470961819 295.5000072151081Q717.9861470961819 296.4166738817747 719.6736470961819 298.1041738817747L719.6736470961819 298.1041738817747Q721.3611470961819 299.7916738817747 722.2778137628486 301.9791738817747Q723.1944804295151 304.1875072151081 723.1944804295151 306.6041738817747L723.1944804295151 306.6041738817747Q723.1944804295151 309.0208405484414 722.2778137628486 311.2083405484414Q721.3611470961819 313.4166738817748 719.6736470961819 314.9583405484414L719.6736470961819 314.9583405484414Q717.9861470961819 316.56250721510804 715.7986470961819 317.4791738817747Q713.5903137628486 318.3958405484414 711.1736470961819 318.3958405484414L711.1736470961819 318.3958405484414ZM701.0069804295151 402.3958405484414Q693.8194804295151 402.3958405484414 689.6528137628486 398.1458405484414L689.6528137628486 398.1458405484414Q684.9653137628485 393.4583405484414 684.9653137628485 384.4583405484414L684.9653137628485 384.4583405484414Q684.9653137628485 380.2083405484414 686.1319804295151 374.6458405484414L686.1319804295151 374.6458405484414L696.3194804295151 326.5208405484414L717.9236470961819 326.5208405484414L707.1528137628486 377.5000072151081Q706.5694804295151 379.3958405484414 706.5694804295151 382.3333405484414L706.5694804295151 382.3333405484414Q706.5694804295151 385.4166738817747 707.9861470961819 386.6458405484414Q709.4236470961819 387.8958405484414 712.6528137628486 387.8958405484414L712.6528137628486 387.8958405484414Q714.8403137628486 387.8958405484414 716.9236470961819 386.9166738817747Q719.0278137628486 385.9166738817747 720.7778137628486 384.1666738817747L720.7778137628486 384.1666738817747Q724.3611470961819 380.5833405484414 726.1944804295151 374.6458405484414L726.1944804295151 374.6458405484414L732.4861470961819 374.6458405484414Q728.4653137628486 386.0000072151081 722.3819804295151 392.7291738817747L722.3819804295151 392.7291738817747Q717.2569804295151 398.2291738817747 710.8194804295151 400.6458405484414L710.8194804295151 400.6458405484414Q706.1319804295151 402.3958405484414 701.0069804295151 402.3958405484414L701.0069804295151 402.3958405484414ZM748.0903137628486 402.1041738817747Q736.9653137628486 402.1041738817747 730.8819804295151 396.6875072151081L730.8819804295151 396.6875072151081Q724.0694804295151 390.6875072151081 724.0694804295151 378.4583405484414L724.0694804295151 378.4583405484414Q724.0694804295151 373.8333405484414 725.0278137628486 368.2291738817747Q725.9861470961819 362.6250072151081 727.9444804295151 356.9166738817748L727.9444804295151 356.9166738817748Q732.4861470961819 343.2916738817747 740.9236470961819 335.1666738817747L740.9236470961819 335.1666738817747Q751.0903137628486 325.2083405484414 765.1528137628486 325.2083405484414L765.1528137628486 325.2083405484414Q784.4236470961819 325.2083405484414 784.4236470961819 349.1458405484414L784.4236470961819 349.1458405484414L784.4236470961819 349.2916738817747Q784.8611470961819 349.4375072151081 785.1528137628486 349.4375072151081L785.1528137628486 349.4375072151081L786.0278137628486 349.4375072151081Q791.0069804295151 349.4375072151081 797.8194804295151 346.6666738817747L797.8194804295151 346.6666738817747Q803.8403137628486 344.1666738817747 809.1736470961819 340.4375072151081L809.1736470961819 340.4375072151081L810.5069804295151 344.5416738817747Q806.1111470961819 349.1458405484414 799.1736470961819 352.3750072151081Q792.2569804295151 355.6041738817747 783.9028137628486 356.9791738817748L783.9028137628486 356.9791738817748Q783.0278137628486 367.1666738817748 779.9653137628486 375.5625072151081Q776.8819804295151 383.9375072151081 772.0486470961819 389.9583405484414L772.0486470961819 389.9583405484414Q767.2778137628486 395.8125072151081 761.1319804295151 398.9583405484414Q754.9861470961819 402.1041738817747 748.0903137628486 402.1041738817747L748.0903137628486 402.1041738817747ZM754.1111470961819 388.6250072151081Q756.7361470961819 388.6250072151081 759.4861470961819 386.2500072151081Q762.2361470961819 383.8750072151081 764.6528137628486 379.6250072151081L764.6528137628486 379.6250072151081Q767.0694804295151 375.3750072151081 768.8194804295151 369.6666738817747Q770.5903137628486 363.9375072151081 771.4653137628486 357.4375072151081L771.4653137628486 357.4375072151081Q769.2569804295151 356.8333405484414 768.3403137628486 355.2291738817747Q767.4236470961819 353.6250072151081 767.4236470961819 351.1250072151081L767.4236470961819 351.1250072151081Q767.4236470961819 348.0625072151081 768.6736470961819 346.0000072151081Q769.9236470961819 343.9583405484414 772.1111470961819 343.0000072151081L772.1111470961819 343.0000072151081Q771.8194804295151 338.2291738817747 770.5903137628486 336.1875072151081L770.5903137628486 336.1875072151081Q769.9236470961819 335.1666738817747 768.9236470961819 334.7291738817747Q767.9444804295151 334.2916738817747 766.4028137628486 334.2916738817747L766.4028137628486 334.2916738817747Q761.3611470961819 334.2916738817747 756.5278137628486 341.8958405484414L756.5278137628486 341.8958405484414Q752.0486470961819 348.7916738817747 749.1944804295151 358.8958405484414L749.1944804295151 358.8958405484414Q746.4028137628486 368.7916738817747 746.4028137628486 376.4791738817748L746.4028137628486 376.4791738817748Q746.4028137628486 380.2083405484414 746.8194804295151 382.5416738817747Q747.2153137628486 384.8958405484414 748.1736470961819 386.2083405484414L748.1736470961819 386.2083405484414Q749.0486470961819 387.5416738817747 750.4444804295151 388.0833405484414Q751.8403137628486 388.6250072151081 754.1111470961819 388.6250072151081L754.1111470961819 388.6250072151081ZM818.5486470961819 439.0208405484414Q815.0486470961819 439.0208405484414 812.0069804295151 438.1041738817748Q808.9653137628486 437.18750721510804 806.7569804295151 435.3541738817748L806.7569804295151 435.3541738817748Q804.4236470961819 433.5208405484414 803.0903137628486 430.7708405484414Q801.7778137628486 428.0416738817748 801.7778137628486 424.43750721510804L801.7778137628486 424.43750721510804Q801.7778137628486 415.9583405484414 809.7569804295151 409.8750072151081L809.7569804295151 409.8750072151081Q815.7778137628486 405.3958405484414 826.2361470961819 402.1041738817747L826.2361470961819 402.1041738817747L828.0694804295151 394.18750721510804Q820.3819804295151 402.3958405484414 810.0486470961819 402.3958405484414L810.0486470961819 402.3958405484414Q801.4861470961819 402.3958405484414 796.2153137628486 397.0625072151081L796.2153137628486 397.0625072151081Q790.0694804295151 390.7500072151081 790.0694804295151 378.3125072151081L790.0694804295151 378.3125072151081Q790.0694804295151 373.0208405484414 791.1319804295151 367.1666738817748Q792.1944804295151 361.3125072151081 794.2361470961819 355.6041738817747L794.2361470961819 355.6041738817747Q798.9236470961819 342.7083405484414 807.0486470961819 334.7916738817747L807.0486470961819 334.7916738817747Q816.4236470961819 325.7916738817747 828.6528137628486 325.7916738817747L828.6528137628486 325.7916738817747Q834.7361470961819 325.7916738817747 837.7778137628486 327.8750072151081Q840.8194804295151 329.9583405484414 840.8194804295151 333.3958405484414L840.8194804295151 333.3958405484414L840.8194804295151 334.2916738817747L842.4236470961819 326.5208405484414L864.0278137628486 326.5208405484414L849.1736470961819 396.1041738817747Q856.2778137628486 393.7500072151081 860.5278137628486 389.06250721510804L860.5278137628486 389.06250721510804Q865.1319804295151 384.0208405484414 868.0694804295151 374.6458405484414L868.0694804295151 374.6458405484414L874.3611470961819 374.6458405484414Q870.3403137628486 387.9791738817747 862.3611470961819 395.2291738817747L862.3611470961819 395.2291738817747Q856.4861470961819 400.5000072151081 847.8611470961819 402.6875072151081L847.8611470961819 402.6875072151081L845.5903137628486 413.5416738817747Q842.7153137628486 427.8958405484414 834.1528137628486 434.3333405484414L834.1528137628486 434.3333405484414Q827.9236470961819 439.0208405484414 818.5486470961819 439.0208405484414L818.5486470961819 439.0208405484414ZM819.7986470961819 387.8958405484414Q823.0278137628486 387.8958405484414 826.6111470961819 384.8958405484414L826.6111470961819 384.8958405484414Q830.4861470961819 381.5208405484414 831.8194804295151 376.1875072151081L831.8194804295151 376.1875072151081L839.4236470961819 340.6666738817747Q839.4236470961819 339.9166738817747 839.0903137628486 338.9791738817747Q838.7778137628486 338.0208405484414 838.1736470961819 337.2083405484414L838.1736470961819 337.2083405484414Q836.4236470961819 335.0833405484414 833.2778137628486 335.0833405484414L833.2778137628486 335.0833405484414Q830.2778137628486 335.0833405484414 827.4444804295151 337.0625072151081Q824.6319804295151 339.0416738817748 822.1528137628486 342.5625072151081L822.1528137628486 342.5625072151081Q817.7569804295151 348.9375072151081 814.8819804295151 359.1875072151081L814.8819804295151 359.1875072151081Q813.5694804295151 363.7291738817747 812.9236470961819 368.1666738817747Q812.2569804295151 372.5833405484414 812.2569804295151 376.1875072151081L812.2569804295151 376.1875072151081Q812.2569804295151 383.6458405484414 815.0486470961819 386.2916738817747L815.0486470961819 386.2916738817747Q815.9861470961819 387.3125072151081 817.1528137628486 387.6041738817747Q818.3403137628486 387.8958405484414 819.7986470961819 387.8958405484414L819.7986470961819 387.8958405484414ZM815.1111470961819 427.31250721510804Q817.4653137628486 427.31250721510804 819.9444804295151 424.00000721510804L819.9444804295151 424.00000721510804Q822.4444804295151 420.7916738817748 823.8194804295151 413.9791738817747L823.8194804295151 413.9791738817747L824.7153137628486 409.6458405484414Q817.9028137628486 412.2083405484414 814.5278137628486 414.8541738817747L814.5278137628486 414.8541738817747Q810.0486470961819 418.2291738817748 810.0486470961819 422.3958405484414L810.0486470961819 422.3958405484414Q810.0486470961819 424.37500721510804 811.2986470961819 425.68750721510804L811.2986470961819 425.68750721510804Q812.6944804295151 427.31250721510804 815.1111470961819 427.31250721510804L815.1111470961819 427.31250721510804ZM862.3611470961819 401.5208405484414L878.2569804295151 326.5208405484414L899.8611470961819 326.5208405484414L897.9444804295151 335.8125072151081Q903.0694804295151 331.2916738817747 906.2986470961819 329.37500721510804L906.2986470961819 329.37500721510804Q911.2778137628486 326.5208405484414 916.0486470961819 326.5208405484414L916.0486470961819 326.5208405484414Q920.8819804295151 326.5208405484414 923.7986470961819 329.9583405484414L923.7986470961819 329.9583405484414Q925.1319804295151 331.5000072151081 925.7778137628486 333.5208405484414Q926.4444804295151 335.5208405484414 926.4444804295151 337.7916738817747L926.4444804295151 337.7916738817747Q926.4444804295151 339.8541738817747 925.7778137628486 341.7500072151081Q925.1319804295151 343.6666738817747 923.7986470961819 345.1875072151081L923.7986470961819 345.1875072151081Q922.3403137628486 346.8125072151081 920.2569804295151 347.7708405484414Q918.1736470961819 348.7083405484414 915.5903137628486 348.7083405484414L915.5903137628486 348.7083405484414Q913.6319804295151 348.7083405484414 912.4444804295151 348.0625072151081Q911.2778137628486 347.3958405484414 910.6111470961819 346.1458405484414L910.6111470961819 346.1458405484414Q910.0278137628486 344.8958405484414 909.8194804295151 343.7291738817748L909.8194804295151 343.7291738817748Q909.1528137628486 340.5833405484414 908.4861470961819 339.5625072151081L908.4861470961819 339.5625072151081Q907.9861470961819 338.8333405484414 906.8819804295151 338.8333405484414L906.8819804295151 338.8333405484414Q903.7361470961819 338.8333405484414 901.5278137628486 340.1458405484414Q899.3403137628486 341.4583405484414 895.9653137628486 344.5416738817747L895.9653137628486 344.5416738817747L883.9653137628486 401.5208405484414L862.3611470961819 401.5208405484414ZM942.4861470961819 402.3958405484414Q933.9028137628486 402.3958405484414 928.6319804295151 397.0625072151081L928.6319804295151 397.0625072151081Q922.4861470961819 390.7500072151081 922.4861470961819 378.3125072151081L922.4861470961819 378.3125072151081Q922.4861470961819 373.0208405484414 923.5486470961819 367.1666738817748Q924.6111470961819 361.3125072151081 926.6528137628486 355.6041738817747L926.6528137628486 355.6041738817747Q931.3403137628486 342.7083405484414 939.4861470961819 334.7916738817747L939.4861470961819 334.7916738817747Q948.8611470961819 325.7916738817747 961.0903137628484 325.7916738817747L961.0903137628484 325.7916738817747Q967.1528137628486 325.7916738817747 970.1944804295151 327.8750072151081Q973.2361470961819 329.9583405484414 973.2361470961819 333.3958405484414L973.2361470961819 333.3958405484414L973.2361470961819 334.50000721510804L974.8611470961819 326.5208405484414L996.4653137628486 326.5208405484414L985.6944804295151 377.5000072151081Q985.0278137628486 379.68750721510804 985.0278137628486 382.3333405484414L985.0278137628486 382.3333405484414Q985.0278137628486 388.7708405484414 991.1944804295151 388.7708405484414L991.1944804295151 388.7708405484414Q995.2778137628486 388.7708405484414 998.6528137628484 384.6041738817747L998.6528137628484 384.6041738817747Q1001.5069804295151 381.0833405484414 1003.3403137628484 374.6458405484414L1003.3403137628484 374.6458405484414L1009.6528137628484 374.6458405484414Q1005.6111470961819 386.0625072151081 999.9028137628486 392.7291738817747L999.9028137628486 392.7291738817747Q995.0694804295151 398.2291738817747 988.9861470961819 400.6458405484414L988.9861470961819 400.6458405484414Q984.5278137628484 402.3958405484414 979.5486470961819 402.3958405484414L979.5486470961819 402.3958405484414Q973.1736470961819 402.3958405484414 969.4028137628486 398.9166738817747Q965.6319804295151 395.4375072151081 964.8194804295151 388.6250072151081L964.8194804295151 388.6250072151081Q960.5694804295151 394.6458405484414 955.8819804295151 398.0000072151081L955.8819804295151 398.0000072151081Q949.8819804295151 402.3958405484414 942.4861470961819 402.3958405484414L942.4861470961819 402.3958405484414ZM952.2153137628486 387.8958405484414Q953.9028137628486 387.8958405484414 955.7778137628486 387.0208405484414Q957.6319804295151 386.1458405484414 959.4028137628486 384.5208405484414L959.4028137628486 384.5208405484414Q963.3611470961819 380.7291738817747 964.6736470961819 374.6458405484414L964.6736470961819 374.6458405484414L971.8403137628486 340.8125072151081Q971.8403137628486 340.0625072151081 971.5278137628486 339.0833405484414Q971.1944804295151 338.0833405484414 970.6111470961819 337.2083405484414L970.6111470961819 337.2083405484414Q968.8403137628486 335.0833405484414 965.6944804295151 335.0833405484414L965.6944804295151 335.0833405484414Q962.6944804295151 335.0833405484414 959.8819804295151 337.0625072151081Q957.0486470961819 339.0416738817748 954.5694804295151 342.5625072151081L954.5694804295151 342.5625072151081Q950.1736470961819 348.9375072151081 947.3194804295151 359.1875072151081L947.3194804295151 359.1875072151081Q945.9861470961819 363.7291738817747 945.3403137628486 368.1666738817747Q944.6736470961819 372.5833405484414 944.6736470961819 376.1875072151081L944.6736470961819 376.1875072151081Q944.6736470961819 383.6458405484414 947.4653137628486 386.2916738817747L947.4653137628486 386.2916738817747Q948.4028137628486 387.3125072151081 949.5903137628486 387.6041738817747Q950.7569804295151 387.8958405484414 952.2153137628486 387.8958405484414L952.2153137628486 387.8958405484414ZM989.8611470961819 439.0208405484414Q986.5069804295151 439.0208405484414 983.3194804295151 437.8541738817748Q980.1319804295151 436.68750721510804 977.6319804295151 434.56250721510804L977.6319804295151 434.56250721510804Q975.0694804295151 432.2916738817748 973.6111470961819 429.31250721510804Q972.1528137628484 426.3541738817748 972.1528137628484 422.8333405484414L972.1528137628484 422.8333405484414Q972.1528137628484 417.7708405484414 974.0903137628486 414.1875072151081Q976.0278137628486 410.6041738817747 979.6944804295151 407.9583405484414L979.6944804295151 407.9583405484414Q982.9028137628486 405.6875072151081 987.1944804295151 403.9791738817747Q991.4861470961819 402.2500072151081 997.9236470961819 400.3541738817747L997.9236470961819 400.3541738817747L1016.0903137628486 314.6458405484414Q1018.8819804295151 300.3750072151081 1027.7361470961819 293.8541738817747L1027.7361470961819 293.8541738817747Q1034.1111470961819 289.1666738817747 1043.4028137628486 289.1666738817747L1043.4028137628486 289.1666738817747Q1046.7778137628486 289.1666738817747 1049.9653137628486 290.3333405484414Q1053.1528137628486 291.5208405484414 1055.6319804295151 293.6250072151081L1055.6319804295151 293.6250072151081Q1058.1944804295151 295.8958405484414 1059.6319804295151 298.8750072151081Q1061.0694804295151 301.8333405484414 1061.0694804295151 305.3541738817747L1061.0694804295151 305.3541738817747Q1061.0694804295151 308.8750072151081 1060.6111470961819 311.5000072151081L1060.6111470961819 311.5000072151081L1053.5903137628484 311.5000072151081Q1053.8819804295151 309.2291738817747 1053.8819804295151 307.4791738817747L1053.8819804295151 307.4791738817747Q1053.8819804295151 304.9791738817747 1052.2361470961819 303.6666738817747Q1050.5903137628484 302.3541738817747 1048.1736470961819 302.3541738817747L1048.1736470961819 302.3541738817747Q1045.1736470961819 302.3541738817747 1042.5278137628484 304.6875072151081L1042.5278137628484 304.6875072151081Q1039.0069804295151 307.8541738817747 1037.6944804295151 314.6458405484414L1037.6944804295151 314.6458405484414L1035.1319804295151 326.5208405484414L1046.1111470961819 326.5208405484414L1045.0278137628486 332.5208405484414L1033.9653137628486 332.5208405484414L1016.6736470961819 413.5416738817747Q1013.8194804295151 427.81250721510804 1005.3194804295151 434.3333405484414L1005.3194804295151 434.3333405484414Q999.0903137628486 439.0208405484414 989.8611470961819 439.0208405484414L989.8611470961819 439.0208405484414ZM986.4236470961819 425.68750721510804Q989.0694804295151 425.68750721510804 991.1944804295151 423.2083405484414L991.1944804295151 423.2083405484414Q993.5278137628486 420.3541738817748 994.9236470961819 413.9791738817747L994.9236470961819 413.9791738817747L996.9028137628486 405.2500072151081Q988.9236470961819 407.8958405484414 985.1111470961819 411.1250072151081L985.1111470961819 411.1250072151081Q980.4236470961819 415.0625072151081 980.4236470961819 420.7083405484414L980.4236470961819 420.7083405484414Q980.4236470961819 422.68750721510804 982.1111470961819 424.00000721510804L982.1111470961819 424.00000721510804Q984.0903137628486 425.68750721510804 986.4236470961819 425.68750721510804L986.4236470961819 425.68750721510804ZM1068.4653137628486 318.3958405484414Q1066.0486470961819 318.3958405484414 1063.8403137628486 317.4791738817747Q1061.6528137628484 316.56250721510804 1060.0278137628484 314.9583405484414L1060.0278137628484 314.9583405484414Q1058.4236470961819 313.4166738817748 1057.5069804295151 311.2083405484414Q1056.5903137628484 309.0208405484414 1056.5903137628484 306.6041738817747L1056.5903137628484 306.6041738817747Q1056.5903137628484 304.1875072151081 1057.5069804295151 301.9791738817747Q1058.4236470961819 299.7916738817747 1060.0278137628484 298.1041738817747L1060.0278137628484 298.1041738817747Q1061.6528137628484 296.4166738817747 1063.8403137628486 295.5000072151081Q1066.0486470961819 294.5833405484414 1068.4653137628486 294.5833405484414L1068.4653137628486 294.5833405484414Q1070.8819804295151 294.5833405484414 1073.0694804295151 295.5000072151081Q1075.2778137628484 296.4166738817747 1076.9444804295151 298.1041738817747L1076.9444804295151 298.1041738817747Q1078.6319804295151 299.7916738817747 1079.5486470961819 301.9791738817747Q1080.4653137628484 304.1875072151081 1080.4653137628484 306.6041738817747L1080.4653137628484 306.6041738817747Q1080.4653137628484 309.0208405484414 1079.5486470961819 311.2083405484414Q1078.6319804295151 313.4166738817748 1076.9444804295151 314.9583405484414L1076.9444804295151 314.9583405484414Q1075.2778137628484 316.56250721510804 1073.0694804295151 317.4791738817747Q1070.8819804295151 318.3958405484414 1068.4653137628486 318.3958405484414L1068.4653137628486 318.3958405484414ZM1058.2778137628484 402.3958405484414Q1051.0903137628484 402.3958405484414 1046.9236470961819 398.1458405484414L1046.9236470961819 398.1458405484414Q1042.2361470961819 393.4583405484414 1042.2361470961819 384.4583405484414L1042.2361470961819 384.4583405484414Q1042.2361470961819 380.2083405484414 1043.4028137628486 374.6458405484414L1043.4028137628486 374.6458405484414L1053.5903137628484 326.5208405484414L1075.1944804295151 326.5208405484414L1064.4236470961819 377.5000072151081Q1063.8403137628486 379.3958405484414 1063.8403137628486 382.3333405484414L1063.8403137628486 382.3333405484414Q1063.8403137628486 385.4166738817747 1065.2778137628486 386.6458405484414Q1066.6944804295151 387.8958405484414 1069.9236470961819 387.8958405484414L1069.9236470961819 387.8958405484414Q1072.1111470961819 387.8958405484414 1074.2153137628484 386.9166738817747Q1076.2986470961819 385.9166738817747 1078.0486470961819 384.1666738817747L1078.0486470961819 384.1666738817747Q1081.6319804295151 380.5833405484414 1083.4653137628484 374.6458405484414L1083.4653137628484 374.6458405484414L1089.7778137628484 374.6458405484414Q1085.7361470961819 386.0000072151081 1079.6528137628486 392.7291738817747L1079.6528137628486 392.7291738817747Q1074.5278137628484 398.2291738817747 1068.0903137628484 400.6458405484414L1068.0903137628484 400.6458405484414Q1063.4028137628484 402.3958405484414 1058.2778137628484 402.3958405484414L1058.2778137628484 402.3958405484414ZM1101.4861470961819 402.3958405484414Q1092.9236470961819 402.3958405484414 1087.6528137628484 397.0625072151081L1087.6528137628484 397.0625072151081Q1081.4861470961819 390.7500072151081 1081.4861470961819 378.3125072151081L1081.4861470961819 378.3125072151081Q1081.4861470961819 373.0208405484414 1082.5486470961819 367.1666738817748Q1083.6111470961819 361.3125072151081 1085.6736470961819 355.6041738817747L1085.6736470961819 355.6041738817747Q1090.3611470961819 342.7083405484414 1098.4861470961819 334.7916738817747L1098.4861470961819 334.7916738817747Q1107.8611470961819 325.7916738817747 1120.0903137628486 325.7916738817747L1120.0903137628486 325.7916738817747Q1126.1736470961819 325.7916738817747 1129.2153137628484 327.8750072151081Q1132.2569804295151 329.9583405484414 1132.2569804295151 333.3958405484414L1132.2569804295151 333.3958405484414L1132.2569804295151 334.50000721510804L1133.8611470961819 326.5208405484414L1155.4653137628484 326.5208405484414L1144.6944804295151 377.5000072151081Q1144.0486470961816 379.68750721510804 1144.0486470961816 382.3333405484414L1144.0486470961816 382.3333405484414Q1144.0486470961816 388.7708405484414 1150.1944804295154 388.7708405484414L1150.1944804295154 388.7708405484414Q1154.2986470961819 388.7708405484414 1157.6736470961819 384.6041738817747L1157.6736470961819 384.6041738817747Q1160.5278137628484 381.0833405484414 1162.3611470961819 374.6458405484414L1162.3611470961819 374.6458405484414L1168.6528137628484 374.6458405484414Q1164.6319804295151 386.0625072151081 1158.9028137628484 392.7291738817747L1158.9028137628484 392.7291738817747Q1154.0694804295151 398.2291738817747 1148.0069804295151 400.6458405484414L1148.0069804295151 400.6458405484414Q1143.5278137628484 402.3958405484414 1138.5486470961819 402.3958405484414L1138.5486470961819 402.3958405484414Q1132.1736470961819 402.3958405484414 1128.4028137628484 398.9166738817747Q1124.6319804295151 395.4375072151081 1123.8194804295151 388.6250072151081L1123.8194804295151 388.6250072151081Q1119.5694804295151 394.6458405484414 1114.8819804295151 398.0000072151081L1114.8819804295151 398.0000072151081Q1108.8819804295151 402.3958405484414 1101.4861470961819 402.3958405484414L1101.4861470961819 402.3958405484414ZM1111.2361470961819 387.8958405484414Q1112.9236470961819 387.8958405484414 1114.7778137628484 387.0208405484414Q1116.6528137628484 386.1458405484414 1118.4028137628486 384.5208405484414L1118.4028137628486 384.5208405484414Q1122.3611470961819 380.7291738817747 1123.6736470961819 374.6458405484414L1123.6736470961819 374.6458405484414L1130.8611470961819 340.8125072151081Q1130.8611470961819 340.0625072151081 1130.5278137628486 339.0833405484414Q1130.1944804295151 338.0833405484414 1129.6111470961816 337.2083405484414L1129.6111470961816 337.2083405484414Q1127.8611470961819 335.0833405484414 1124.7153137628486 335.0833405484414L1124.7153137628486 335.0833405484414Q1121.6944804295151 335.0833405484414 1118.8819804295151 337.0625072151081Q1116.0694804295151 339.0416738817748 1113.5694804295151 342.5625072151081L1113.5694804295151 342.5625072151081Q1109.1736470961819 348.9375072151081 1106.3194804295151 359.1875072151081L1106.3194804295151 359.1875072151081Q1105.0069804295151 363.7291738817747 1104.3403137628486 368.1666738817747Q1103.6944804295151 372.5833405484414 1103.6944804295151 376.1875072151081L1103.6944804295151 376.1875072151081Q1103.6944804295151 383.6458405484414 1106.4653137628484 386.2916738817747L1106.4653137628484 386.2916738817747Q1107.4236470961819 387.3125072151081 1108.5903137628484 387.6041738817747Q1109.7569804295151 387.8958405484414 1111.2361470961819 387.8958405484414L1111.2361470961819 387.8958405484414ZM1179.4236470961819 402.3958405484414Q1174.0069804295151 402.3958405484414 1169.8194804295151 400.7500072151081Q1165.6528137628484 399.1041738817748 1162.7986470961816 396.1666738817747L1162.7986470961816 396.1666738817747Q1160.1528137628484 393.4583405484414 1158.8403137628484 390.1250072151081Q1157.5278137628486 386.7916738817747 1157.5278137628486 383.2083405484414L1157.5278137628486 383.2083405484414Q1157.5278137628486 378.3125072151081 1160.0069804295151 374.3541738817747L1160.0069804295151 374.3541738817747Q1162.2153137628486 370.8333405484414 1165.5069804295151 369.2916738817747L1165.5069804295151 369.2916738817747Q1171.3611470961819 358.8958405484414 1175.6736470961816 348.2083405484414Q1180.0069804295154 337.5000072151081 1183.9653137628484 324.8333405484414L1183.9653137628484 324.8333405484414L1206.1528137628486 321.9166738817747Q1207.0278137628486 340.9583405484414 1207.7569804295151 351.1250072151081L1207.7569804295151 351.1250072151081Q1208.4861470961816 361.6041738817748 1209.0069804295151 366.5208405484414L1209.0069804295151 366.5208405484414Q1209.4444804295151 372.2291738817747 1209.4444804295151 376.4791738817748L1209.4444804295151 376.4791738817748Q1209.4444804295151 380.2708405484414 1208.8611470961819 382.1875072151081L1208.8611470961819 382.1875072151081Q1215.5903137628486 378.2291738817747 1219.6319804295151 374.6458405484414L1219.6319804295151 374.6458405484414L1225.9236470961816 374.6458405484414Q1220.5903137628486 380.8750072151081 1214.9028137628486 385.3333405484414Q1209.2361470961819 389.7916738817747 1203.0069804295151 393.3958405484414L1203.0069804295151 393.3958405484414Q1198.5278137628486 398.0833405484414 1191.7986470961819 400.3541738817747L1191.7986470961819 400.3541738817747Q1185.9444804295151 402.3958405484414 1179.4236470961819 402.3958405484414L1179.4236470961819 402.3958405484414ZM1174.6528137628484 390.5416738817748Q1180.2986470961819 390.5416738817748 1183.6736470961819 387.4583405484414L1183.6736470961819 387.4583405484414Q1187.6944804295154 383.7916738817747 1187.6944804295154 376.6250072151081L1187.6944804295154 376.6250072151081Q1187.6944804295154 373.6250072151081 1187.3194804295151 369.0833405484414L1187.3194804295151 369.0833405484414L1186.9653137628484 364.6041738817747Q1186.2986470961819 358.8125072151081 1185.6528137628484 351.2083405484414L1185.6528137628484 351.2083405484414L1184.8403137628486 341.1041738817747Q1182.7153137628484 347.9166738817747 1179.7778137628486 354.6041738817747Q1176.8611470961816 361.3125072151081 1172.6736470961816 369.4375072151081L1172.6736470961816 369.4375072151081Q1176.1319804295151 371.3541738817747 1176.1319804295151 374.6458405484414L1176.1319804295151 374.6458405484414Q1176.1319804295151 377.5625072151081 1174.3611470961816 379.68750721510804L1174.3611470961816 379.68750721510804Q1172.4653137628486 382.0416738817747 1169.5278137628484 382.0416738817747L1169.5278137628484 382.0416738817747Q1168.0694804295151 382.0416738817747 1167.0694804295151 381.6458405484414Q1166.0903137628486 381.2291738817747 1165.5069804295151 380.0625072151081L1165.5069804295151 380.0625072151081Q1165.5069804295151 385.4791738817747 1167.6319804295151 388.0000072151081Q1169.7569804295151 390.5416738817748 1174.6528137628484 390.5416738817748L1174.6528137628484 390.5416738817748Z " fill="black" transform="matrix(0.7137475989142765,0,0,0.7137475989142765,0,40.181004367925965)"/></g></svg>